<svg width="33" height="33" viewBox="0 0 33 33" fill="none" xmlns="http://www.w3.org/2000/svg">
<g filter="url(#filter0_d_2003_16)">
<path fill-rule="evenodd" clip-rule="evenodd" d="M15.3837 9.98836C14.6131 9.98836 13.9884 10.6131 13.9884 11.3837V21.4302C13.9884 22.2009 14.6131 22.8256 15.3837 22.8256H25.4302C26.2009 22.8256 26.8256 22.2009 26.8256 21.4302V11.3837C26.8256 10.6131 26.2009 9.98836 25.4302 9.98836H15.3837ZM12.3139 11.3837C12.3139 9.68832 13.6883 8.31394 15.3837 8.31394H25.4302C27.1256 8.31394 28.5 9.68832 28.5 11.3837V21.4302C28.5 23.1256 27.1256 24.5 25.4302 24.5H15.3837C13.6883 24.5 12.3139 23.1256 12.3139 21.4302V11.3837Z" fill="white"/>
<path fill-rule="evenodd" clip-rule="evenodd" d="M7.56977 2.17442C7.1997 2.17442 6.84479 2.32143 6.58311 2.58311C6.32143 2.84479 6.17442 3.1997 6.17442 3.56977V13.6163C6.17442 13.9864 6.32143 14.3413 6.58311 14.6029C6.84479 14.8646 7.1997 15.0116 7.56977 15.0116H8.68605C9.14843 15.0116 9.52326 15.3865 9.52326 15.8488C9.52326 16.3112 9.14843 16.6861 8.68605 16.6861H7.56977C6.75562 16.6861 5.97481 16.3626 5.39911 15.7869C4.82342 15.2112 4.5 14.4304 4.5 13.6163V3.56977C4.5 2.75562 4.82342 1.97481 5.39911 1.39911C5.97481 0.823421 6.75562 0.5 7.56977 0.5H17.6163C18.4304 0.5 19.2112 0.823421 19.7869 1.39911C20.3626 1.97481 20.6861 2.75562 20.6861 3.56977V4.68605C20.6861 5.14843 20.3112 5.52326 19.8488 5.52326C19.3865 5.52326 19.0116 5.14843 19.0116 4.68605V3.56977C19.0116 3.1997 18.8646 2.84479 18.6029 2.58311C18.3413 2.32143 17.9864 2.17442 17.6163 2.17442H7.56977Z" fill="white"/>
</g>
<defs>
<filter id="filter0_d_2003_16" x="0.5" y="0.5" width="32" height="32" filterUnits="userSpaceOnUse" color-interpolation-filters="sRGB">
<feFlood flood-opacity="0" result="BackgroundImageFix"/>
<feColorMatrix in="SourceAlpha" type="matrix" values="0 0 0 0 0 0 0 0 0 0 0 0 0 0 0 0 0 0 127 0" result="hardAlpha"/>
<feOffset dy="4"/>
<feGaussianBlur stdDeviation="2"/>
<feComposite in2="hardAlpha" operator="out"/>
<feColorMatrix type="matrix" values="0 0 0 0 0 0 0 0 0 0 0 0 0 0 0 0 0 0 0.25 0"/>
<feBlend mode="normal" in2="BackgroundImageFix" result="effect1_dropShadow_2003_16"/>
<feBlend mode="normal" in="SourceGraphic" in2="effect1_dropShadow_2003_16" result="shape"/>
</filter>
</defs>
</svg>
